<svg width="45" height="45" viewBox="0 0 45 45" fill="none" xmlns="http://www.w3.org/2000/svg">
<g clip-path="url(#clip0_82_22)">
<path d="M11.7 37.8C11.2254 37.8 10.7648 37.6101 10.4273 37.2726L0.527344 27.3726C-0.175781 26.6695 -0.175781 25.5305 0.527344 24.8273C1.23047 24.1242 2.36953 24.1242 3.07266 24.8273L11.5734 33.3281L31.9148 8.75389C32.5477 7.98397 33.6832 7.8785 34.4461 8.51483C35.2125 9.14764 35.3215 10.2832 34.6852 11.0461L13.0852 37.1461C12.7652 37.5398 12.2906 37.7754 11.7844 37.7965C11.7562 37.8 11.7281 37.8 11.7 37.8ZM21.6844 37.7965C22.1906 37.7754 22.6617 37.5398 22.9852 37.1461L44.5852 11.0461C45.2215 10.2832 45.1125 9.14764 44.3461 8.51483C43.5832 7.8785 42.4477 7.98749 41.8148 8.75389L21.4734 33.3281L21.0727 32.9273C20.3695 32.2242 19.2305 32.2242 18.5273 32.9273C17.8242 33.6305 17.8242 34.7695 18.5273 35.4726L20.3273 37.2726C20.6648 37.6101 21.1254 37.8 21.6 37.8C21.6281 37.8 21.6562 37.8 21.6844 37.7965Z" fill="#65BB64"/>
</g>
<defs>
<clipPath id="clip0_82_22">
<rect width="45" height="45" fill="white"/>
</clipPath>
</defs>
</svg>
