<svg width="45" height="45" viewBox="0 0 45 45" fill="none" xmlns="http://www.w3.org/2000/svg">
<path d="M9.37509 5.62494C9.12663 5.62143 8.87995 5.66733 8.64939 5.75998C8.41882 5.85263 8.20897 5.99018 8.03203 6.16464C7.85508 6.3391 7.71458 6.54699 7.61868 6.77622C7.52277 7.00545 7.47339 7.25146 7.47339 7.49994C7.47339 7.74843 7.52277 7.99443 7.61868 8.22367C7.71458 8.4529 7.85508 8.66078 8.03203 8.83524C8.20897 9.0097 8.41882 9.14725 8.64939 9.2399C8.87995 9.33255 9.12663 9.37846 9.37509 9.37494V10.3124C9.37509 15.8621 12.9195 20.475 17.8126 22.3846V22.6153C12.9194 24.524 9.37509 29.1371 9.37509 34.6874V35.6249C9.12663 35.6214 8.87995 35.6673 8.64939 35.76C8.41882 35.8526 8.20897 35.9902 8.03203 36.1646C7.85508 36.3391 7.71458 36.547 7.61868 36.7762C7.52277 37.0054 7.47339 37.2515 7.47339 37.4999C7.47339 37.7484 7.52277 37.9944 7.61868 38.2237C7.71458 38.4529 7.85508 38.6608 8.03203 38.8352C8.20897 39.0097 8.41882 39.1472 8.64939 39.2399C8.87995 39.3326 9.12663 39.3785 9.37509 39.3749H11.2501H33.7501H35.6251C35.8736 39.3785 36.1202 39.3326 36.3508 39.2399C36.5814 39.1472 36.7912 39.0097 36.9682 38.8352C37.1451 38.6608 37.2856 38.4529 37.3815 38.2237C37.4774 37.9944 37.5268 37.7484 37.5268 37.4999C37.5268 37.2515 37.4774 37.0054 37.3815 36.7762C37.2856 36.547 37.1451 36.3391 36.9682 36.1646C36.7912 35.9902 36.5814 35.8526 36.3508 35.76C36.1202 35.6673 35.8736 35.6214 35.6251 35.6249V34.6874C35.6251 29.1371 32.0805 24.5248 27.1876 22.6153V22.3846C32.0809 20.4757 35.6251 15.8621 35.6251 10.3124V9.37494C35.8736 9.37846 36.1202 9.33255 36.3508 9.2399C36.5814 9.14725 36.7912 9.0097 36.9682 8.83524C37.1451 8.66078 37.2856 8.4529 37.3815 8.22367C37.4774 7.99443 37.5268 7.74843 37.5268 7.49994C37.5268 7.25146 37.4774 7.00545 37.3815 6.77622C37.2856 6.54699 37.1451 6.3391 36.9682 6.16464C36.7912 5.99018 36.5814 5.85263 36.3508 5.75998C36.1202 5.66733 35.8736 5.62143 35.6251 5.62494H33.7501H11.2501H9.37509ZM13.1251 9.37494H31.8751V10.3124C31.8751 14.6962 28.8821 18.3374 24.8438 19.378C24.4415 19.4819 24.0851 19.7165 23.8306 20.0449C23.5761 20.3734 23.4378 20.7771 23.4376 21.1926V23.8055C23.4374 24.2213 23.5755 24.6254 23.83 24.9542C24.0846 25.283 24.4412 25.5179 24.8438 25.6219C28.8826 26.6634 31.8751 30.3026 31.8751 34.6874V35.6249H31.2837C30.6077 31.3762 26.9392 28.1249 22.5001 28.1249C18.061 28.1249 14.3925 31.3762 13.7165 35.6249H13.1251V34.6874C13.1251 30.3026 16.1178 26.6625 20.1563 25.6219C20.5587 25.518 20.9151 25.2834 21.1696 24.9549C21.4241 24.6265 21.5624 24.2228 21.5626 23.8073V21.1944C21.5628 20.7786 21.4247 20.3745 21.1702 20.0457C20.9156 19.7169 20.559 19.482 20.1563 19.378C16.1178 18.3365 13.1251 14.6962 13.1251 10.3124V9.37494Z" fill="#BC0A0A"/>
</svg>
