<svg width="25" height="24" viewBox="0 0 25 24" fill="none" xmlns="http://www.w3.org/2000/svg">
<path d="M21.437 5.25H17.878C16.977 5.25 16.939 5.136 16.692 4.396L16.49 3.789C16.183 2.869 15.326 2.25 14.356 2.25H10.518C9.548 2.25 8.69001 2.868 8.38401 3.789L8.18201 4.396C7.93501 5.137 7.89701 5.25 6.99601 5.25H3.43701C3.02301 5.25 2.68701 5.586 2.68701 6C2.68701 6.414 3.02301 6.75 3.43701 6.75H4.73501L5.50201 18.249C5.65001 20.474 7.01402 21.75 9.24402 21.75H15.631C17.86 21.75 19.224 20.474 19.373 18.249L20.14 6.75H21.437C21.851 6.75 22.187 6.414 22.187 6C22.187 5.586 21.851 5.25 21.437 5.25ZM9.80701 4.263C9.91001 3.956 10.195 3.75 10.518 3.75H14.356C14.679 3.75 14.965 3.956 15.067 4.263L15.269 4.87C15.313 5.001 15.357 5.128 15.405 5.25H9.46701C9.51501 5.127 9.56002 5 9.60402 4.87L9.80701 4.263ZM17.875 18.149C17.78 19.582 17.066 20.25 15.63 20.25H9.24301C7.80701 20.25 7.09401 19.583 6.99801 18.149L6.23801 6.75H6.99501C7.12001 6.75 7.22401 6.737 7.33601 6.729C7.37001 6.734 7.40101 6.75 7.43601 6.75H17.436C17.472 6.75 17.502 6.734 17.536 6.729C17.648 6.737 17.752 6.75 17.877 6.75H18.634L17.875 18.149ZM15.187 11V16C15.187 16.414 14.851 16.75 14.437 16.75C14.023 16.75 13.687 16.414 13.687 16V11C13.687 10.586 14.023 10.25 14.437 10.25C14.851 10.25 15.187 10.586 15.187 11ZM11.187 11V16C11.187 16.414 10.851 16.75 10.437 16.75C10.023 16.75 9.68701 16.414 9.68701 16V11C9.68701 10.586 10.023 10.25 10.437 10.25C10.851 10.25 11.187 10.586 11.187 11Z" fill="#E93C3C"/>
</svg>
