<svg width="25" height="24" viewBox="0 0 25 24" fill="none" xmlns="http://www.w3.org/2000/svg">
<g clip-path="url(#clip0_93_101)">
<path d="M15.937 12.5C15.937 13.0933 15.7611 13.6734 15.4314 14.1667C15.1018 14.6601 14.6332 15.0446 14.0851 15.2716C13.5369 15.4987 12.9337 15.5581 12.3517 15.4423C11.7698 15.3266 11.2352 15.0409 10.8157 14.6213C10.3961 14.2018 10.1104 13.6672 9.99466 13.0853C9.8789 12.5033 9.93831 11.9001 10.1654 11.3519C10.3924 10.8038 10.777 10.3352 11.2703 10.0056C11.7636 9.67594 12.3437 9.49999 12.937 9.49999C13.7327 9.49999 14.4957 9.81606 15.0583 10.3787C15.6209 10.9413 15.937 11.7043 15.937 12.5ZM12.937 6.49999C11.01 6.49055 9.12404 7.05654 7.52066 8.12546C5.91727 9.19439 4.66945 10.7176 3.93701 12.5C4.67736 14.2768 5.92708 15.7947 7.52868 16.8625C9.13029 17.9302 11.0121 18.5 12.937 18.5C14.8619 18.5 16.7437 17.9302 18.3453 16.8625C19.9469 15.7947 21.1967 14.2768 21.937 12.5C21.2046 10.7176 19.9568 9.19439 18.3534 8.12546C16.75 7.05654 14.864 6.49055 12.937 6.49999Z" stroke="#28AAE2" stroke-width="2" stroke-miterlimit="10"/>
</g>
<defs>
<clipPath id="clip0_93_101">
<rect width="24" height="24" fill="white" transform="translate(0.437012)"/>
</clipPath>
</defs>
</svg>
