<svg width="25" height="24" viewBox="0 0 25 24" fill="none" xmlns="http://www.w3.org/2000/svg">
<path d="M21.3811 5.28418L19.1531 3.05615C18.6321 2.53615 17.9811 2.24912 17.2051 2.25012C16.4691 2.25112 15.778 2.53918 15.26 3.06018L2.906 15.4711C2.765 15.612 2.68701 15.8021 2.68701 16.0001V21.0001C2.68701 21.4141 3.02301 21.7501 3.43701 21.7501H8.43701C8.63501 21.7501 8.82606 21.6711 8.96606 21.5321L21.3769 9.17712C21.8979 8.65812 22.186 7.96718 22.187 7.23218C22.188 6.49618 21.9021 5.80418 21.3811 5.28418ZM8.12695 20.2501H4.18701V16.3102L13.1799 7.27612L17.1621 11.2571L8.12695 20.2501ZM20.3191 8.11414L18.2251 10.1991L14.238 6.21314L16.323 4.11816C16.559 3.88116 16.873 3.75112 17.208 3.75012C17.542 3.75012 17.857 3.88009 18.094 4.11609L20.322 6.34412C20.558 6.58112 20.688 6.8951 20.688 7.2301C20.687 7.5641 20.5561 7.87814 20.3191 8.11414Z" fill="#8B8B8B"/>
</svg>
