<svg width="45" height="45" viewBox="0 0 45 45" fill="none" xmlns="http://www.w3.org/2000/svg">
<path d="M41 24C41 24.874 40.2923 25.5833 39.4167 25.5833C38.5411 25.5833 37.8333 24.874 37.8333 24C37.8333 15.2695 30.7305 8.16667 22 8.16667C17.0062 8.16667 12.3179 10.5575 9.34758 14.5H14.0833C14.9589 14.5 15.6667 15.2093 15.6667 16.0833C15.6667 16.9573 14.9589 17.6667 14.0833 17.6667H7.75C6.00358 17.6667 4.58333 16.2464 4.58333 14.5V8.16667C4.58333 7.29267 5.29108 6.58333 6.16667 6.58333C7.04225 6.58333 7.75 7.29267 7.75 8.16667V11.498C11.322 7.4415 16.4963 5 22 5C32.4769 5 41 13.5231 41 24ZM36.25 30.3333H29.9167C29.0411 30.3333 28.3333 31.0427 28.3333 31.9167C28.3333 32.7907 29.0411 33.5 29.9167 33.5H34.6524C31.6805 37.4425 26.9938 39.8333 22 39.8333C13.2695 39.8333 6.16667 32.7305 6.16667 24C6.16667 23.126 5.45892 22.4167 4.58333 22.4167C3.70775 22.4167 3 23.126 3 24C3 34.4769 11.5231 43 22 43C27.5037 43 32.678 40.5585 36.25 36.502V39.8333C36.25 40.7073 36.9578 41.4167 37.8333 41.4167C38.7089 41.4167 39.4167 40.7073 39.4167 39.8333V33.5C39.4167 31.7536 37.9964 30.3333 36.25 30.3333Z" fill="#EBA336"/>
</svg>
