<svg width="50" height="50" viewBox="0 0 50 50" fill="none" xmlns="http://www.w3.org/2000/svg">
<g id="voucher 1">
<path id="Vector" d="M41.6667 10.9375H26.7708C25.1667 10.9375 23.7917 11.8958 23.3125 13.3125C22.9583 14.375 21.9375 15.1042 20.8333 15.1042C19.7292 15.1042 18.7083 14.375 18.3542 13.3125C17.875 11.8958 16.4792 10.9375 14.8958 10.9375H8.33333C6.33333 10.9375 4.6875 12.5833 4.6875 14.5833V35.4167C4.6875 37.4167 6.33333 39.0625 8.33333 39.0625H14.8958C16.5 39.0625 17.875 38.1042 18.3542 36.6875C18.7083 35.625 19.7292 34.8958 20.8333 34.8958C21.9375 34.8958 22.9583 35.625 23.3125 36.6875C23.7917 38.1042 25.1875 39.0625 26.7708 39.0625H41.6667C43.6667 39.0625 45.3125 37.4167 45.3125 35.4167V14.5833C45.3125 12.5833 43.6667 10.9375 41.6667 10.9375ZM42.1875 35.4167C42.1875 35.7083 41.9583 35.9375 41.6667 35.9375H26.7708C26.5208 35.9375 26.3125 35.8125 26.2708 35.6875C25.6458 33.8542 24.1875 32.5 22.3958 32V31.25C22.3958 30.3958 21.6875 29.6875 20.8333 29.6875C19.9792 29.6875 19.2708 30.3958 19.2708 31.25V32C17.4792 32.5 16.0208 33.8542 15.3958 35.6875C15.3542 35.8125 15.1458 35.9375 14.8958 35.9375H8.33333C8.04167 35.9375 7.8125 35.7083 7.8125 35.4167V14.5833C7.8125 14.2917 8.04167 14.0625 8.33333 14.0625H14.8958C15.1458 14.0625 15.3542 14.1875 15.3958 14.3125C16.0208 16.1458 17.4792 17.5 19.2708 18V18.75C19.2708 19.6042 19.9792 20.3125 20.8333 20.3125C21.6875 20.3125 22.3958 19.6042 22.3958 18.75V18C24.1875 17.5 25.6458 16.1458 26.2708 14.3125C26.3125 14.1875 26.5208 14.0625 26.7708 14.0625H41.6667C41.9583 14.0625 42.1875 14.2917 42.1875 14.5833V35.4167Z" fill="#28AAE2"/>
<path id="Vector_2" d="M20.8335 22.3959C19.9793 22.3959 19.271 23.1042 19.271 23.9584V26.0417C19.271 26.8959 19.9793 27.6042 20.8335 27.6042C21.6877 27.6042 22.396 26.8959 22.396 26.0417V23.9584C22.396 23.1042 21.6877 22.3959 20.8335 22.3959Z" fill="#28AAE2"/>
<path id="Vector_3" d="M37.5002 20.3125H33.3335C32.4793 20.3125 31.771 21.0208 31.771 21.875C31.771 22.7292 32.4793 23.4375 33.3335 23.4375H37.5002C38.3543 23.4375 39.0627 22.7292 39.0627 21.875C39.0627 21.0208 38.3543 20.3125 37.5002 20.3125Z" fill="#28AAE2"/>
<path id="Vector_4" d="M37.4998 26.5625H29.1665C28.3123 26.5625 27.604 27.2708 27.604 28.125C27.604 28.9792 28.3123 29.6875 29.1665 29.6875H37.4998C38.354 29.6875 39.0623 28.9792 39.0623 28.125C39.0623 27.2708 38.354 26.5625 37.4998 26.5625Z" fill="#28AAE2"/>
</g>
</svg>
